<svg xmlns="http://www.w3.org/2000/svg" viewBox="0 0 48 48" width="48px" height="48px">
  <path fill="#FFC107" d="M43.611,20.083H42V20H24v8h11.303C33.677,31.91,29.364,35,24,35c-6.627,0-12-5.373-12-12 s5.373-12,12-12c3.059,0,5.842,1.154,7.961,3.039l5.657-5.657C34.046,5.109,29.268,3,24,3C12.955,3,4,11.955,4,23 s8.955,20,20,20s20-8.955,20-20C44,22.659,43.862,21.35,43.611,20.083z"/>
  <path fill="#FF3D00" d="M6.306,14.691l6.571,4.819C14.655,16.108,18.961,13,24,13c3.059,0,5.842,1.154,7.961,3.039l5.657-5.657 C34.046,5.109,29.268,3,24,3C16.318,3,9.656,7.337,6.306,14.691z"/>
  <path fill="#4CAF50" d="M24,43c5.311,0,10.129-2.047,13.742-5.373l-6.342-5.371C29.267,33.91,26.736,35,24,35 c-5.345,0-9.649-3.078-11.343-7.431l-6.51,5.02C9.449,39.556,16.12,43,24,43z"/>
  <path fill="#1976D2" d="M43.611,20.083H42V20H24v8h11.303c-1.091,2.91-3.288,5.21-6.103,6.604 c0.001-0.001,0.002-0.001,0.003-0.002l6.342,5.371C34.266,40.045,44,34,44,23C44,22.659,43.862,21.35,43.611,20.083z"/>
</svg>
